<?xml version="1.0" standalone="no"?>
<!DOCTYPE svg PUBLIC "-//W3C//DTD SVG 20010904//EN"
 "http://www.w3.org/TR/2001/REC-SVG-20010904/DTD/svg10.dtd">
<svg version="1.0" xmlns="http://www.w3.org/2000/svg"
 width="260.000000pt" height="260.000000pt" viewBox="0 0 260.000000 260.000000"
 preserveAspectRatio="xMidYMid meet">
<metadata>
Created by potrace 1.16, written by Peter Selinger 2001-2019
</metadata>
<g transform="translate(0.000000,260.000000) scale(0.100000,-0.100000)"
fill="#525252" stroke="none">
<path d="M1434 2283 c-100 -120 -251 -302 -338 -405 -86 -102 -156 -190 -156
-195 0 -4 57 -39 126 -78 79 -43 136 -82 152 -102 70 -93 9 -235 -107 -250
-28 -4 -75 6 -172 37 -74 23 -137 44 -141 47 -5 2 -8 0 -8 -4 0 -5 33 -36 73
-69 39 -33 148 -125 241 -202 92 -78 171 -142 175 -142 3 0 58 62 121 137 63
76 269 321 458 545 188 225 342 412 342 417 0 12 -549 473 -569 477 -11 3 -74
-66 -197 -213z m82 -348 c59 -17 128 -79 155 -139 56 -124 -9 -269 -139 -312
-46 -14 -61 -15 -108 -5 -204 46 -282 296 -129 418 66 53 133 64 221 38z"/>
<path d="M1383 1855 c-14 -10 -32 -13 -47 -9 -21 5 -28 1 -38 -22 -10 -22 -10
-28 0 -32 7 -2 12 -22 12 -51 0 -86 58 -112 157 -70 18 7 36 10 40 5 8 -8 -44
-60 -68 -68 -10 -3 -8 -11 7 -31 22 -30 40 -33 72 -12 16 12 27 13 41 6 28
-15 60 22 43 49 -7 11 -12 40 -12 65 0 84 -67 117 -150 75 -47 -24 -50 -24
-50 -5 0 9 13 24 30 33 35 20 36 29 11 60 -23 26 -21 26 -48 7z"/>
<path d="M585 2065 c-82 -25 -175 -49 -205 -53 l-55 -7 -3 -243 c-3 -278 -14
-254 107 -222 41 11 81 20 89 20 8 0 40 -24 72 -53 34 -32 80 -62 111 -75 96
-37 365 -122 387 -122 54 0 102 49 102 102 -1 50 -28 73 -207 173 -159 89
-178 103 -181 128 -5 43 13 57 73 57 l53 0 103 123 c56 67 109 130 117 140 8
9 12 20 9 24 -14 14 -217 45 -317 49 -101 4 -110 2 -255 -41z"/>
<path d="M100 2043 c0 -10 7 -88 15 -173 8 -85 20 -207 25 -270 18 -199 15
-190 64 -190 l43 0 6 153 c4 115 3 400 -3 490 0 4 -34 7 -75 7 -65 0 -75 -2
-75 -17z"/>
<path d="M744 901 c-36 -22 -58 -75 -48 -115 7 -28 13 -34 199 -201 135 -122
197 -166 276 -197 49 -20 78 -22 329 -27 295 -6 303 -8 350 -62 l25 -28 205
19 c285 26 340 32 340 36 0 2 -25 68 -56 146 -97 251 -156 338 -262 390 l-67
33 -299 3 c-217 2 -307 0 -328 -9 -62 -25 -74 -111 -22 -160 24 -23 34 -24
172 -29 139 -5 147 -6 147 -25 0 -19 -8 -20 -217 -23 -190 -2 -224 0 -270 16
-29 10 -126 69 -215 131 -177 122 -208 134 -259 102z"/>
<path d="M2190 239 c-102 -10 -223 -22 -270 -26 l-85 -8 -3 -47 -3 -48 325 0
326 0 0 65 c0 36 0 68 0 73 0 13 -102 10 -290 -9z"/>
</g>
</svg>
