<?xml version="1.0" standalone="no"?>
<!DOCTYPE svg PUBLIC "-//W3C//DTD SVG 20010904//EN"
 "http://www.w3.org/TR/2001/REC-SVG-20010904/DTD/svg10.dtd">
<svg version="1.0" xmlns="http://www.w3.org/2000/svg"
 width="840.000000pt" height="880.000000pt" viewBox="0 0 840.000000 880.000000"
 preserveAspectRatio="xMidYMid meet">
<metadata>
Created by potrace 1.16, written by Peter Selinger 2001-2019
</metadata>
<g transform="translate(0.000000,880.000000) scale(0.100000,-0.100000)"
fill="#22C55E" stroke="none">
<path d="M3885 8390 c-38 -5 -119 -13 -180 -19 -321 -32 -720 -139 -1080 -289
-81 -34 -421 -207 -451 -229 -17 -13 -34 -23 -39 -23 -11 0 -269 -174 -335
-226 -209 -164 -277 -224 -455 -405 -183 -186 -261 -278 -398 -467 -62 -86
-177 -261 -177 -270 0 -4 -14 -27 -31 -52 -53 -78 -213 -409 -264 -545 -14
-38 -31 -81 -36 -95 -16 -38 -74 -216 -97 -300 -57 -206 -103 -451 -124 -660
-17 -174 -17 -645 0 -820 32 -324 116 -681 235 -1000 25 -65 32 -83 71 -175
28 -67 196 -404 217 -435 9 -14 45 -70 80 -125 60 -96 176 -265 189 -275 3 -3
37 -45 75 -95 93 -121 453 -483 577 -581 56 -44 106 -84 112 -90 27 -25 324
-226 378 -255 14 -8 82 -44 150 -81 69 -37 165 -86 214 -108 49 -23 103 -47
119 -55 17 -7 62 -26 100 -40 39 -15 84 -32 100 -39 71 -29 327 -104 455 -134
142 -34 367 -71 510 -84 174 -17 627 -17 800 0 341 33 694 115 1015 238 39 14
88 33 110 41 57 20 346 162 435 213 41 23 91 51 110 62 59 34 272 178 330 224
208 163 277 224 451 401 178 180 264 281 402 472 62 84 177 260 177 269 0 4
14 27 31 52 29 43 186 354 220 436 36 85 42 101 66 164 119 318 198 651 234
985 35 328 18 807 -38 1108 l-26 137 -204 0 c-111 0 -203 -3 -203 -6 0 -3 7
-36 15 -73 8 -36 27 -138 42 -226 25 -153 27 -176 27 -515 0 -340 -1 -362 -27
-515 -53 -313 -112 -537 -211 -795 -40 -105 -48 -122 -133 -292 -62 -126 -73
-146 -118 -223 -71 -121 -260 -396 -289 -420 -6 -5 -39 -44 -72 -85 -97 -119
-227 -253 -343 -351 -58 -51 -119 -103 -136 -118 -72 -64 -313 -232 -440 -306
-123 -72 -338 -179 -450 -224 -404 -162 -756 -242 -1152 -263 -544 -29 -1012
41 -1503 225 -116 44 -368 160 -430 198 -14 9 -68 40 -120 69 -52 30 -106 62
-120 72 -14 11 -74 53 -135 95 -237 166 -483 392 -671 618 -108 130 -254 327
-254 343 0 5 -7 15 -15 22 -13 11 -44 61 -121 199 -81 143 -182 361 -229 492
-180 501 -245 943 -217 1482 26 518 178 1041 441 1522 31 56 95 160 118 191
13 17 23 34 23 38 0 10 176 252 211 291 15 17 67 77 117 135 101 118 204 220
337 330 50 41 95 80 100 86 15 17 262 194 271 194 4 0 21 10 38 23 100 75 378
222 561 296 524 212 1012 293 1587 263 369 -18 698 -88 1071 -226 37 -14 72
-28 77 -31 7 -4 9 69 8 212 l-3 218 -95 31 c-285 93 -556 153 -840 185 -126
14 -647 21 -745 9z"/>
<path d="M7729 7634 c-182 -116 -577 -382 -730 -492 -239 -172 -595 -439 -628
-471 -10 -9 -62 -51 -117 -93 -184 -145 -583 -479 -684 -574 -30 -28 -118
-107 -195 -175 -449 -397 -1202 -1170 -1608 -1652 -70 -84 -132 -153 -137
-155 -8 -3 -126 86 -265 198 -119 97 -212 171 -325 259 -63 50 -162 129 -220
176 -58 46 -150 119 -205 162 -55 43 -111 87 -125 100 -28 25 -174 141 -295
235 -44 34 -97 76 -117 94 -83 74 -74 75 -185 -12 -54 -42 -106 -85 -116 -95
-10 -11 -64 -55 -120 -100 -56 -44 -138 -109 -182 -145 -44 -36 -111 -90 -148
-121 l-69 -56 119 -120 c65 -66 170 -172 233 -236 63 -64 396 -407 740 -764
344 -356 874 -905 1178 -1220 304 -314 557 -573 562 -575 5 -2 14 7 19 20 82
210 231 530 376 810 47 89 90 170 95 178 6 8 17 29 25 46 7 17 52 97 99 179
47 81 86 149 86 151 0 1 29 49 64 107 35 57 67 113 70 124 4 11 15 28 26 38
11 10 20 22 20 27 0 5 20 41 45 79 25 38 45 72 45 74 0 3 30 51 66 107 37 57
85 132 109 168 140 217 429 642 530 780 30 41 82 113 116 160 186 261 491 653
777 997 357 431 822 933 1181 1277 91 87 168 163 170 168 2 6 -1 20 -7 31 -28
58 -152 357 -152 366 0 19 -14 12 -121 -55z"/>
</g>
</svg>
