<?xml version="1.0" standalone="no"?>
<!DOCTYPE svg PUBLIC "-//W3C//DTD SVG 20010904//EN"
 "http://www.w3.org/TR/2001/REC-SVG-20010904/DTD/svg10.dtd">
<svg version="1.0" xmlns="http://www.w3.org/2000/svg"
 width="840.000000pt" height="859.000000pt" viewBox="0 0 840.000000 859.000000"
 preserveAspectRatio="xMidYMid meet">
<metadata>
Created by potrace 1.16, written by Peter Selinger 2001-2019
</metadata>
<g transform="translate(0.000000,859.000000) scale(0.100000,-0.100000)"
fill="#000000" stroke="none">
<path d="M3965 8559 c-511 -42 -1023 -237 -1442 -551 -627 -469 -1037 -1183
-1135 -1978 -19 -156 -16 -492 6 -610 79 -433 287 -921 648 -1524 327 -545
664 -1024 1387 -1965 279 -363 400 -530 464 -637 44 -73 102 -128 166 -158 70
-32 217 -30 286 3 71 35 118 82 171 170 72 118 143 215 489 666 177 231 380
499 452 595 945 1275 1419 2148 1549 2855 27 147 25 477 -5 675 -69 458 -229
872 -479 1235 -579 841 -1551 1306 -2557 1224z m490 -710 c140 -15 278 -46
422 -94 807 -268 1377 -983 1463 -1834 14 -142 13 -233 -5 -334 -78 -447 -528
-1228 -1305 -2262 -302 -403 -800 -1025 -825 -1031 -19 -5 -508 605 -820 1021
-732 976 -1171 1714 -1292 2172 -82 313 -6 793 188 1182 115 230 237 397 426
582 469 459 1089 671 1748 598z"/>
<path d="M3990 6750 c-334 -71 -625 -307 -751 -608 -61 -147 -82 -251 -82
-412 0 -98 5 -168 16 -216 113 -499 528 -834 1032 -834 526 0 962 373 1040
890 19 120 19 190 1 310 -67 443 -405 791 -849 875 -108 21 -299 18 -407 -5z"/>
<path d="M6132 2128 c-29 -6 -58 -24 -88 -52 -42 -41 -44 -45 -44 -99 0 -51 4
-61 35 -96 43 -47 58 -53 210 -87 655 -143 1115 -399 1115 -619 0 -123 -168
-270 -454 -397 -434 -193 -1083 -328 -1896 -395 -308 -25 -1311 -25 -1610 0
-868 73 -1503 210 -1954 421 -184 86 -345 213 -381 301 -77 183 174 404 641
565 131 45 324 99 473 131 113 25 153 46 189 99 19 28 23 44 19 81 -8 90 -83
149 -187 149 -63 0 -309 -55 -495 -111 -638 -192 -987 -452 -1037 -774 -70
-449 523 -826 1642 -1044 1368 -266 3160 -212 4335 131 826 241 1213 601 1076
1001 -29 85 -68 144 -151 230 -205 216 -580 388 -1135 522 -214 52 -247 56
-303 43z"/>
</g>
</svg>
