<?xml version="1.0" standalone="no"?>
<!DOCTYPE svg PUBLIC "-//W3C//DTD SVG 20010904//EN"
 "http://www.w3.org/TR/2001/REC-SVG-20010904/DTD/svg10.dtd">
<svg version="1.0" xmlns="http://www.w3.org/2000/svg"
 width="200.000000pt" height="200.000000pt" viewBox="0 0 200.000000 200.000000"
 preserveAspectRatio="xMidYMid meet">
<metadata>
Created by potrace 1.16, written by Peter Selinger 2001-2019
</metadata>
<g transform="translate(0.000000,200.000000) scale(0.100000,-0.100000)"
fill="#0284C7" stroke="none">
<path d="M1683 1751 c-170 -115 -267 -195 -452 -376 -234 -229 -409 -437 -558
-666 l-50 -77 -33 82 c-53 132 -90 186 -155 230 -43 30 -114 35 -168 12 -38
-15 -137 -103 -137 -120 0 -6 29 -41 65 -76 113 -111 200 -264 267 -464 22
-66 42 -122 43 -124 2 -2 42 26 89 61 47 36 104 77 128 92 37 24 58 54 148
213 133 236 288 469 426 642 121 151 391 426 501 510 40 30 72 59 73 63 0 11
-53 77 -62 77 -4 0 -60 -36 -125 -79z"/>
</g>
</svg>
